<svg id="Warstwa_1" data-name="Warstwa 1" xmlns="http://www.w3.org/2000/svg" viewBox="0 0 100 100"><defs><style>.cls-1{fill:#009dde;}</style></defs><title>1_4</title><path class="cls-1" d="M68.59,82.08,56.27,19.29a1.47,1.47,0,0,0-.18-.46,10.54,10.54,0,1,0-2.65,1.54L65.5,81.84,49.89,96.46,34.28,81.84,44.9,25.65A1.49,1.49,0,1,0,42,25.1l-10.78,57a1.49,1.49,0,0,0,.45,1.37L48.87,99.6a1.49,1.49,0,0,0,2,0L68.15,83.46A1.49,1.49,0,0,0,68.59,82.08ZM42,10.61a7.53,7.53,0,1,1,7.53,7.53A7.54,7.54,0,0,1,42,10.61Z"/></svg>