<svg id="Warstwa_1" data-name="Warstwa 1" xmlns="http://www.w3.org/2000/svg" viewBox="0 0 100 100"><defs><style>.cls-1{fill:#009dde;}</style></defs><title>6_13</title><path class="cls-1" d="M83.57,98.2a1.48,1.48,0,0,1-.74-.2l-8-4.71L60.24,95.14a1.52,1.52,0,0,1-.42,0l-4.45-.73a1.48,1.48,0,0,1-.85-.46l-3-3.26-4.67.77a1.47,1.47,0,0,1-1.52-.72l-3.61-6.36L35.42,82.2a1.43,1.43,0,0,1-.29-.14l-7.55-4.63-2,2.81a1.47,1.47,0,0,1-2,.39l-6-3.87A1.47,1.47,0,0,1,17,74.95l1.21-2.82L9.62,67,5,65.89A1.47,1.47,0,0,1,3.88,64.1l1.65-6.58L3.11,37.24.33,33.8A1.47,1.47,0,0,1,0,32.69L1.66,19.62a1.47,1.47,0,0,1,1.43-1.29l.95,0,.83-3.82a1.47,1.47,0,0,1,1-1.09L19.65,9.13l4.68-4.35a1.47,1.47,0,0,1,.7-.36L41,1.15A1.47,1.47,0,1,1,41.56,4L26,7.22l-4.63,4.3a1.48,1.48,0,0,1-.57.33L7.56,16l-.9,4.11a1.47,1.47,0,0,1-1.4,1.16l-.84,0L3,32.44l2.66,3.28a1.47,1.47,0,0,1,.32.75l2.5,21a1.49,1.49,0,0,1,0,.53L7.09,63.39l3.45.85a1.47,1.47,0,0,1,.39.16l9.92,5.85a1.47,1.47,0,0,1,.6,1.85L20.23,75,24,77.39l2-2.79a1.47,1.47,0,0,1,2-.41l8.6,5.27,6.69,2.31a1.47,1.47,0,0,1,.8.66l3.38,5.95,4.45-.73a1.48,1.48,0,0,1,1.32.46l3.17,3.47,3.74.61,14.86-1.88a1.47,1.47,0,0,1,.93.19l8.07,4.74,2.79-.17-1.47-7a1.47,1.47,0,0,1,.28-1.21L97,72.29,92.86,48.57l-3.47-3.88a1.47,1.47,0,0,1-.11-1.83l4.78-6.82L89.93,16.77l-3-4.6-11,.34a1.51,1.51,0,0,1-.3,0L54.84,8.82l-2.6,2.59a1.47,1.47,0,0,1-1.11.43l-10.54-.52a1.47,1.47,0,0,1,.14-2.94l9.89.48L53.3,6.19a1.47,1.47,0,0,1,1.29-.41L76,9.56,87.63,9.2a1.46,1.46,0,0,1,1.27.66l3.64,5.52a1.48,1.48,0,0,1,.21.5l4.31,20.18a1.47,1.47,0,0,1-.23,1.15L92.36,43.6l3,3.32a1.47,1.47,0,0,1,.35.73L100,72.43a1.47,1.47,0,0,1-.29,1.16L88.27,88.17l1.68,8A1.47,1.47,0,0,1,88.6,97.9l-4.94.3Z"/></svg>