<svg id="Warstwa_1" data-name="Warstwa 1" xmlns="http://www.w3.org/2000/svg" viewBox="0 0 100 100"><defs>



    <style>.cls-1{fill:rgba(242, 242, 242, 0.9);}</style>





</defs><title>9_31</title><path class="cls-1" d="M59.65,72.27h-19a1.5,1.5,0,1,1,0-3h19a1.5,1.5,0,1,1,0,3Z"/><path class="cls-1" d="M50.16,70.68a1.5,1.5,0,0,1-1.5-1.5V43.81H43.83a1.5,1.5,0,1,1,0-3h6.33a1.5,1.5,0,0,1,1.5,1.5V69.18A1.5,1.5,0,0,1,50.16,70.68Z"/><path class="cls-1" d="M50,100A50,50,0,1,1,99.29,41.59a1.5,1.5,0,0,1-3,.5A47,47,0,1,0,97,50a1.5,1.5,0,0,1,3,0A50.06,50.06,0,0,1,50,100Z"/><circle class="cls-1" cx="48.58" cy="28.07" r="2.74"/></svg>