<svg id="Warstwa_1" data-name="Warstwa 1" xmlns="http://www.w3.org/2000/svg" viewBox="0 0 100 100"><defs>


    <style>.cls-1{fill:rgba(242, 242, 242, 0.9);}</style>



</defs><title>16_9</title><path class="cls-1" d="M78.76,99.06a16.89,16.89,0,0,1-9.25-2.74A236.86,236.86,0,0,1,2.78,30.43,16.5,16.5,0,0,1,4.91,9.52l5.93-5.86a11.81,11.81,0,0,1,16.53,0L38.19,14.35a11.49,11.49,0,0,1,0,16.38l-3.61,3.56a1.5,1.5,0,0,1-2.11-2.14l3.61-3.56a8.49,8.49,0,0,0,0-12.11L25.26,5.8a8.79,8.79,0,0,0-12.31,0L7,11.66a13.5,13.5,0,0,0-1.74,17.1,233.82,233.82,0,0,0,65.87,65A14,14,0,0,0,88.52,92.1l5.94-5.86a8.49,8.49,0,0,0,0-12.11L83.64,63.44a8.8,8.8,0,0,0-12.32,0L67.72,67a1.5,1.5,0,0,1-2,.1A283.1,283.1,0,0,1,37.16,40a1.5,1.5,0,1,1,2.22-2,282.77,282.77,0,0,0,27.18,26l2.65-2.61a11.81,11.81,0,0,1,16.53,0L96.57,72a11.49,11.49,0,0,1,0,16.38l-5.94,5.86A16.88,16.88,0,0,1,78.76,99.06Z"/></svg>