<svg id="Warstwa_1" data-name="Warstwa 1" xmlns="http://www.w3.org/2000/svg" viewBox="0 0 100 100"><defs><style>.cls-1{fill:#009dde;}</style></defs><title>21_4</title><path class="cls-1" d="M94.42,100H55.63a3.22,3.22,0,0,1-3.15-3.28V81h-.92A1.5,1.5,0,0,1,50,79.51V61.86a3.22,3.22,0,0,1,3.15-3.28H64.64l0-.6c0-5.29,3.64-8.09,7.24-8.09H78c4.05,0,7.35,3.81,7.35,8.5v.18H96.85A3.22,3.22,0,0,1,100,61.86V79.51A1.5,1.5,0,0,1,98.49,81h-.92v15.7A3.22,3.22,0,0,1,94.42,100ZM55.48,81v15.7c0,.19.11.28.14.28H94.42s.14-.09.14-.28V81H80.72a1.5,1.5,0,1,1,0-3H97V61.86c0-.19-.11-.28-.14-.28H66.32a1.45,1.45,0,0,1-.3,0l-.17,0H53.2s-.14.09-.14.28V78H69.32a1.5,1.5,0,1,1,0,3ZM67.65,58.58H82.36v-.18c0-3-1.95-5.5-4.34-5.5H71.9c-2.1,0-4.23,1.59-4.23,5.15Z"/><path class="cls-1" d="M78.4,84.32H71.78a3,3,0,0,1-3-3V77.58a3,3,0,0,1,3-2.95H78.4a3,3,0,0,1,3,2.95v3.79A3,3,0,0,1,78.4,84.32Zm-.05-6.74-6.56.05.05,3.73,6.51,0Z"/><path class="cls-1" d="M1.51,74.66A1.5,1.5,0,0,1,0,73.16a15.56,15.56,0,0,1,10.08-14.5l.12,0,15.93-4.51A1.5,1.5,0,1,1,26.95,57L11.08,61.49A12.55,12.55,0,0,0,3,73.16,1.5,1.5,0,0,1,1.51,74.66Z"/><path class="cls-1" d="M41.61,55.34c-14.1,0-23.93-16-23.93-30.45S27.75,0,41.61,0,65.55,10.47,65.55,24.9,55.72,55.34,41.61,55.34ZM41.61,3C29.3,3,20.69,12,20.69,24.9c0,14.36,10,27.45,20.92,27.45S62.54,39.26,62.54,24.9C62.54,12,53.93,3,41.61,3Z"/><path class="cls-1" d="M43.92,85H5.43A5.38,5.38,0,0,1,0,79.64V71.51a1.51,1.51,0,0,1,3,0v8.12A2.37,2.37,0,0,0,5.43,82H43.92a1.5,1.5,0,1,1,0,3Z"/></svg>