<svg id="Warstwa_1" data-name="Warstwa 1" xmlns="http://www.w3.org/2000/svg" viewBox="0 0 100 100"><defs><style>.cls-1{fill:#009dde;}</style></defs><title>21_2</title><path class="cls-1" d="M58.58,100H54.37a6,6,0,0,1-4.6-2,6.09,6.09,0,0,1-4.46,1.94H41.09A6.11,6.11,0,0,1,35,93.81v-26H34.8a6.53,6.53,0,0,1-6.51-6.52V36.54c0-3,1.3-8,10-8,.87,0,3.1,0,12,17.31,1.34-2.4,3.46-6.14,5.39-9.45a1.5,1.5,0,0,1,2.6,1.52c-3.11,5.31-6.7,11.79-6.73,11.86a1.5,1.5,0,0,1-2.66-.06c-4-7.92-9.13-17-10.79-18.17-6.08.07-6.8,2.87-6.8,5V61.26a3.52,3.52,0,0,0,3.51,3.52h1.69a1.5,1.5,0,0,1,1.5,1.5v0s0,.1,0,.15V93.81a3.1,3.1,0,0,0,3.09,3.1h4.22a3.11,3.11,0,0,0,3.1-3.1V76.18a1.5,1.5,0,0,1,3,0V93.81q0,.18,0,.36v0a2.72,2.72,0,0,0,3,2.78h4.21a3,3,0,0,0,3.13-2.89V66.32a1.52,1.52,0,0,1,1.61-1.5h1.77a3.52,3.52,0,0,0,3.51-3.52V36.57a1.48,1.48,0,0,1,0-.18,4.08,4.08,0,0,0-1-2.91c-1.13-1.24-3.2-1.9-6-1.9a1.5,1.5,0,0,1,0-3c3.77,0,6.56,1,8.29,2.94a7.18,7.18,0,0,1,1.75,5.12V61.29a6.53,6.53,0,0,1-6.52,6.53h-.38V94.1A6,6,0,0,1,58.58,100ZM50,23.2A11.6,11.6,0,1,1,61.55,11.6,11.61,11.61,0,0,1,50,23.2ZM50,3a8.59,8.59,0,1,0,8.59,8.59A8.6,8.6,0,0,0,50,3Z"/></svg>