<svg id="Warstwa_1" data-name="Warstwa 1" xmlns="http://www.w3.org/2000/svg" viewBox="0 0 100 100"><defs><style>.cls-1{fill:#009dde;}</style></defs><title>21_22</title><path class="cls-1" d="M58.4,23.06a1.5,1.5,0,0,1,0-3,8.56,8.56,0,0,0,0-17.12,1.5,1.5,0,0,1,0-3,11.56,11.56,0,0,1,0,23.12Z"/><path class="cls-1" d="M67.08,93.28H62.86a1.5,1.5,0,1,1,0-3h4.22a3.11,3.11,0,0,0,3.1-3.11L70.31,66a1.5,1.5,0,0,1,1.5-1.49h1.66A3.5,3.5,0,0,0,77,61V36.39a1.55,1.55,0,0,1,0-.18,4.07,4.07,0,0,0-1-2.9c-1.12-1.23-3.19-1.89-6-1.89a1.5,1.5,0,0,1,0-3c3.75,0,6.53,1,8.25,2.93A7.17,7.17,0,0,1,80,36.45V61a6.51,6.51,0,0,1-6.49,6.5H73.3l-.12,19.65A6.11,6.11,0,0,1,67.08,93.28Z"/><path class="cls-1" d="M37.28,99.67H33.07A6.1,6.1,0,0,1,27,93.57v-26h-.19a6.51,6.51,0,0,1-6.5-6.51V36.42c0-3,1.3-8,10-8,.86,0,3.1,0,11.93,17.27,1.34-2.39,3.45-6.13,5.38-9.43a1.5,1.5,0,0,1,2.59,1.51c-3.1,5.3-6.68,11.77-6.72,11.83a1.5,1.5,0,0,1-2.66-.06c-4-7.9-9.11-16.92-10.77-18.13-6.07.07-6.78,2.87-6.78,5V61.09a3.51,3.51,0,0,0,3.5,3.51h1.69A1.5,1.5,0,0,1,30,66.1s0,0,0,0,0,.1,0,.15V93.57a3.09,3.09,0,0,0,3.08,3.1h4.21a3.1,3.1,0,0,0,3.09-3.1V76a1.5,1.5,0,0,1,3,0v17.6c0,.12,0,.24,0,.36s0,0,0,0a2.66,2.66,0,0,0,3,2.69h4.2a2.88,2.88,0,0,0,3.12-2.8V66.13a1.5,1.5,0,0,1,1.61-1.5H57a3.51,3.51,0,0,0,3.51-3.51V36.45a1.58,1.58,0,0,1,0-.18,4.07,4.07,0,0,0-1-2.91c-1.12-1.24-3.2-1.89-6-1.89a1.5,1.5,0,0,1,0-3c3.76,0,6.55,1,8.28,2.94a7.17,7.17,0,0,1,1.74,5.11V61.12A6.52,6.52,0,0,1,57,67.63h-.38V93.86a5.83,5.83,0,0,1-6.12,5.8h-4.2a6,6,0,0,1-4.59-1.93A6.07,6.07,0,0,1,37.28,99.67ZM41.91,23.1A11.57,11.57,0,1,1,53.48,11.53,11.59,11.59,0,0,1,41.91,23.1ZM41.91,3a8.57,8.57,0,1,0,8.57,8.57A8.58,8.58,0,0,0,41.91,3Z"/></svg>