<svg id="Warstwa_1" data-name="Warstwa 1" xmlns="http://www.w3.org/2000/svg" viewBox="0 0 100 100"><defs>


    <style>.cls-1{fill:#009dde;}</style>


</defs><title>24_6</title><path class="cls-1" d="M23.78,85a8.42,8.42,0,1,1,8.4-8.42A8.42,8.42,0,0,1,23.78,85Zm0-13.85a5.42,5.42,0,1,0,5.4,5.42A5.42,5.42,0,0,0,23.78,71.18Z"/><path class="cls-1" d="M6.09,99.15A5.88,5.88,0,1,1,12,93.27,5.89,5.89,0,0,1,6.09,99.15Zm0-8.77A2.88,2.88,0,1,0,9,93.27,2.88,2.88,0,0,0,6.09,90.38Z"/><path class="cls-1" d="M48.71,70.24a23.66,23.66,0,0,1-19.08-9.8h-.05c-13.14,0-23.82-10.93-23.82-24.36S16.44,11.72,29.58,11.72A23.26,23.26,0,0,1,42,15.29,32,32,0,0,1,69.12,0c17.44,0,31.09,14.55,31.09,33.12,0,18.27-13.66,32.59-31.09,32.59a1.5,1.5,0,0,1,0-3c15.75,0,28.09-13,28.09-29.59C97.21,16.19,84.87,3,69.12,3A29.06,29.06,0,0,0,43.78,18.15a1.5,1.5,0,0,1-2.19.49,20.35,20.35,0,0,0-12-3.93C18.1,14.72,8.76,24.3,8.76,36.08S18.1,57.44,29.58,57.44l.35,0,.39,0a1.52,1.52,0,0,1,1.29.66,20.46,20.46,0,0,0,30.32,4.32,1.5,1.5,0,0,1,1.94,2.29A23.53,23.53,0,0,1,48.71,70.24Z"/></svg>