<svg id="Warstwa_1" data-name="Warstwa 1" xmlns="http://www.w3.org/2000/svg" viewBox="0 0 100 100"><defs><style>.cls-1{fill:#009dde;}</style></defs><title>24_27</title><path class="cls-1" d="M55.27,84.1H44.88a1.5,1.5,0,0,1,0-3H55.27a1.5,1.5,0,0,1,0,3Z"/><path class="cls-1" d="M50.08,82.47a1.5,1.5,0,0,1-1.5-1.5V67.74h-2a1.5,1.5,0,0,1,0-3h3.46a1.5,1.5,0,0,1,1.5,1.5V81A1.5,1.5,0,0,1,50.08,82.47Z"/><path class="cls-1" d="M49.21,60.81a2.37,2.37,0,1,1,2.37-2.37A2.37,2.37,0,0,1,49.21,60.81Z"/><path class="cls-1" d="M86.13,100.11H17.36a4.88,4.88,0,0,1-4.87-4.87V48.33a4.88,4.88,0,0,1,4.87-4.87h9.55a1.5,1.5,0,0,1,0,3H17.36a1.87,1.87,0,0,0-1.87,1.87v46.9a1.87,1.87,0,0,0,1.87,1.87H86.13a1.5,1.5,0,1,1,0,3Z"/><path class="cls-1" d="M86.5,92.74a1.5,1.5,0,0,1-1.5-1.5V48.33a1.87,1.87,0,0,0-1.87-1.87H25.8a1.5,1.5,0,1,1,0-3H83.13A4.88,4.88,0,0,1,88,48.33v42.9A1.5,1.5,0,0,1,86.5,92.74Z"/><path class="cls-1" d="M73.1,46a1.5,1.5,0,0,1-1.5-1.5V24.64a21.29,21.29,0,0,0-42.58,0V44.52a1.5,1.5,0,0,1-3,0V24.64a24.29,24.29,0,0,1,48.58,0V44.52A1.5,1.5,0,0,1,73.1,46Z"/></svg>