<svg id="Warstwa_1" data-name="Warstwa 1" xmlns="http://www.w3.org/2000/svg" viewBox="0 0 100 100"><defs><style>.cls-1{fill:#009dde;}</style></defs><title>24_22</title><path class="cls-1" d="M49.4,100.13a2.48,2.48,0,0,1-1.82-4.22,2.45,2.45,0,0,1,1.76-.74h0a2.48,2.48,0,0,1,2.5,2.46,2.37,2.37,0,0,1-.67,1.71A2.52,2.52,0,0,1,49.4,100.13Zm0-2h0Z"/><path class="cls-1" d="M49.13,76.9a1.51,1.51,0,0,1-1.5-1.52V56a1.5,1.5,0,1,1,3,0v19.4A1.51,1.51,0,0,1,49.13,76.9Z"/><path class="cls-1" d="M49.78,57.44a1.5,1.5,0,0,1,0-3A25.66,25.66,0,1,0,24.13,28.78a1.5,1.5,0,1,1-3,0A28.66,28.66,0,1,1,49.78,57.44Z"/></svg>