<svg id="Warstwa_1" data-name="Warstwa 1" xmlns="http://www.w3.org/2000/svg" viewBox="0 0 100 100"><defs><style>.cls-1{fill:#009dde;}</style></defs><title>24_31</title><path class="cls-1" d="M50,78.92C22.79,78.92,1.21,51.17.31,50a1.5,1.5,0,0,1,0-1.86C1.24,47,22.82,20.9,50,20.9c19.32,0,40.26,11.53,49.79,27.41a1.5,1.5,0,0,1-2.57,1.54C88.34,35.06,68,23.9,50,23.9,27,23.9,7.55,44.47,3.45,49.11,7.49,54,27,75.92,50,75.92c17.93,0,33.7-13.31,41.5-21.24a1.5,1.5,0,1,1,2.14,2.1C85.51,65.05,69,78.92,50,78.92Zm0-8.85A19.7,19.7,0,1,1,69.76,50.37,19.75,19.75,0,0,1,50,70.07Zm0-36.4a16.7,16.7,0,1,0,16.75,16.7A16.75,16.75,0,0,0,50,33.67Z"/></svg>