<svg id="Warstwa_1" data-name="Warstwa 1" xmlns="http://www.w3.org/2000/svg" viewBox="0 0 100 100"><defs>


    <style>

        .cls-1{
        fill:rgb(96, 19, 108);
        stroke:rgb(96, 19, 108);
        <!--          box-shadow: 1px 1px 5px rgba(7, 74, 155,1)-->
        stroke-width:2px;
        stroke-radius: 2px;
        }

        #Warstwa_1{
        width: 1.5vw;
        height: 3vh;
        }
    </style>



</defs><title>21_11</title><path class="cls-1" d="M99.26,86.26c0-.54,0-1.07-.08-1.59v-.35a1.49,1.49,0,0,0-.1-.54,18.13,18.13,0,0,0-11.5-14.41l-.12,0L68.71,64a1.5,1.5,0,0,0-.82,2.89L86.58,72.2a15.11,15.11,0,0,1,9.61,12.63v8.65A3.53,3.53,0,0,1,92.67,97h-31L55.41,68.74a1.5,1.5,0,1,0-2.92.65L58.58,97H43.51l5.3-27.41A1.5,1.5,0,1,0,45.87,69L40.46,97h-33a3.07,3.07,0,0,1-3.06-3.07V85A15.12,15.12,0,0,1,14,72.2L32.7,66.89A1.5,1.5,0,0,0,31.89,64L13.14,69.33l-.12,0A18.13,18.13,0,0,0,1.53,83.7a1.49,1.49,0,0,0-.14.62v.55q-.05.69-.05,1.39a1.49,1.49,0,0,0,.05.38v7.29A6.07,6.07,0,0,0,7.45,100H92.67a6.53,6.53,0,0,0,6.52-6.53V86.72A1.49,1.49,0,0,0,99.26,86.26Z"/><path class="cls-1" d="M50,64.92c16.44,0,27.89-18.84,27.89-35.74S66.19,0,50,0,22.15,12.27,22.15,29.18C22.15,48.21,35.18,64.92,50,64.92ZM50,3c14.66,0,24.9,10.76,24.9,26.18,0,17.13-11.87,32.74-24.9,32.74S25.14,46.31,25.14,29.18C25.14,13.76,35.38,3,50,3Z"/></svg>