<svg id="Warstwa_1" data-name="Warstwa 1"
     xmlns="http://www.w3.org/2000/svg" viewBox="0 0 100 100"><defs>





    <style>

        .cls-1{
        fill:rgb(96, 19, 108);;
        stroke:rgb(96, 19, 108);;
        <!--          box-shadow: 1px 1px 5px rgba(7, 74, 155,1)-->
        stroke-width:2px;
        stroke-radius: 2px;
        }

        #Warstwa_1{
        width: 1.5vw;
        height: 3vh;
        }
    </style>



</defs><title>Dane użytkownika</title><path class="cls-1" d="M98.5,29.27a1.5,1.5,0,0,0-1.5,1.5v45a1.77,1.77,0,0,1-1.77,1.77H4.86a1.77,1.77,0,0,1-1.77-1.77v-50A1.77,1.77,0,0,1,4.86,24H98.23a1.5,1.5,0,1,0,0-3H4.86A4.77,4.77,0,0,0,.1,25.77v50a4.77,4.77,0,0,0,4.77,4.77H95.23A4.77,4.77,0,0,0,100,75.72v-45A1.5,1.5,0,0,0,98.5,29.27Z"/><path class="cls-1" d="M80.22,37.92H52.88a1.5,1.5,0,1,0,0,3H80.22a1.5,1.5,0,0,0,0-3Z"/><path class="cls-1" d="M81.72,50.75a1.5,1.5,0,0,0-1.5-1.5H52.88a1.5,1.5,0,1,0,0,3H80.22A1.5,1.5,0,0,0,81.72,50.75Z"/><path class="cls-1" d="M52.88,60.57a1.5,1.5,0,1,0,0,3H70.23a1.5,1.5,0,1,0,0-3Z"/><path class="cls-1" d="M28.23,49.21A8.19,8.19,0,1,0,20,41,8.24,8.24,0,0,0,28.23,49.21Zm0-13.38A5.19,5.19,0,1,1,23,41,5.24,5.24,0,0,1,28.23,35.83Z"/><path class="cls-1" d="M13.19,56.55v10a1.5,1.5,0,1,0,3,0v-10c0-.85,0-2.63,4.24-2.63a1.5,1.5,0,0,0,0-3C14.13,50.93,13.19,54.45,13.19,56.55Z"/><path class="cls-1" d="M40.27,56.57v10a1.5,1.5,0,1,0,3,0v-9.9a4.94,4.94,0,0,0-1.22-3.56c-1.25-1.42-3.27-2.14-6-2.14a1.5,1.5,0,0,0,0,3c1.79,0,3.08.38,3.73,1.09a2,2,0,0,1,.51,1.35A1.44,1.44,0,0,0,40.27,56.57Z"/></svg>