<svg id="Warstwa_1" data-name="Warstwa 1" xmlns="http://www.w3.org/2000/svg" viewBox="0 0 100 100"><defs>


    <style>.cls-1{fill:#009dde;}</style>


</defs><title>4_17</title><path class="cls-1" d="M68.42,22a1.51,1.51,0,0,0-1.51,1.51V53.37a1.51,1.51,0,0,0,3,0V23.46A1.51,1.51,0,0,0,68.42,22Z"/><path class="cls-1" d="M45.13,82.43H5.32A2.3,2.3,0,0,1,3,80.1V17.45a1.5,1.5,0,0,0,0-.28V5.36A2.32,2.32,0,0,1,5.31,3H52V16.69a1.51,1.51,0,0,0,1.51,1.51H68.45a1.51,1.51,0,0,0,.59-.12h0A1.51,1.51,0,0,0,70,16.72h0s0,0,0-.07h0a1.5,1.5,0,0,0-.11-.52,1.53,1.53,0,0,0-.32-.49L54.59.45A1.51,1.51,0,0,0,53.51,0H5.31A5.34,5.34,0,0,0,0,5.36V24.2a1.49,1.49,0,0,0,0,.28V80.1a5.33,5.33,0,0,0,5.29,5.35H45.13a1.51,1.51,0,1,0,0-3ZM55,5.19l9.83,10H55Z"/><path class="cls-1" d="M41,11.68H12.6a1.51,1.51,0,1,0,0,3H41a1.51,1.51,0,1,0,0-3Z"/><path class="cls-1" d="M41,23.24H12.6a1.51,1.51,0,1,0,0,3H41a1.51,1.51,0,1,0,0-3Z"/><path class="cls-1" d="M56.07,45.68H12.6a1.51,1.51,0,1,0,0,3H56.07a1.51,1.51,0,1,0,0-3Z"/><path class="cls-1" d="M56,57.24H12.6a1.51,1.51,0,1,0,0,3H56a1.51,1.51,0,1,0,0-3Z"/><path class="cls-1" d="M50,71.3a1.51,1.51,0,1,0,0-3H12.6a1.51,1.51,0,1,0,0,3Z"/><path class="cls-1" d="M57.35,36.31a1.51,1.51,0,0,0-1.51-1.51H12.6a1.51,1.51,0,1,0,0,3H55.84A1.51,1.51,0,0,0,57.35,36.31Z"/><path class="cls-1" d="M99.57,61.27,89.18,50.63a1.54,1.54,0,0,0-2.14,0L55.84,82.56a1.49,1.49,0,0,0-.27.42l0,.11s0,.07,0,.11L51.31,98.1a1.49,1.49,0,0,0,1.86,1.84l14.56-4.26.08,0,.11,0a1.49,1.49,0,0,0,.4-.26l0,0h0l31.2-31.93A1.49,1.49,0,0,0,99.57,61.27ZM67.31,92.11,59,83.61,79.79,62.33l8.31,8.5Zm-9.65-5.6,6.85,7-9.58,2.8ZM90.19,68.69l-8.31-8.5,6.23-6.38,8.31,8.5Z"/></svg>