<svg id="Warstwa_1" data-name="Warstwa 1" xmlns="http://www.w3.org/2000/svg" viewBox="0 0 100 100"><defs>


    <style>

        .cls-1{fill:red;}


    </style>




</defs><title>9_16</title><path class="cls-1" d="M92.64,13.08H69V1.5A1.5,1.5,0,0,0,67.48,0h-33A1.5,1.5,0,0,0,33,1.5V13.08H9.35a1.5,1.5,0,1,0,0,3h7.44s0,.07,0,.1V91.72A8.28,8.28,0,0,0,25,100h51.9a8.28,8.28,0,0,0,8.27-8.28V22.18a1.5,1.5,0,0,0-3,0V91.72A5.28,5.28,0,0,1,76.95,97H25a5.28,5.28,0,0,1-5.27-5.28V16.18s0-.07,0-.1H92.64a1.5,1.5,0,0,0,0-3ZM36,13.08V3H66V13.08Z"/><path class="cls-1" d="M33,33.58v45.8a1.5,1.5,0,0,0,3,0V33.58a1.5,1.5,0,0,0-3,0Z"/><path class="cls-1" d="M49.5,33.58v45.8a1.5,1.5,0,1,0,3,0V33.58a1.5,1.5,0,0,0-3,0Z"/><path class="cls-1" d="M66,33.58v45.8a1.5,1.5,0,1,0,3,0V33.58a1.5,1.5,0,0,0-3,0Z"/></svg>