<svg id="Warstwa_1" data-name="Warstwa 1" xmlns="http://www.w3.org/2000/svg" viewBox="0 0 100 100"><defs>

    <style>

        .cls-1{
        fill:rgb(96, 19, 108);;
        stroke:rgb(96, 19, 108);;
        <!--          box-shadow: 1px 1px 5px rgba(7, 74, 155,1)-->
        stroke-width:2px;
        stroke-radius: 2px;
        }

        #Warstwa_1{
        width: 1.5vw;
        height: 3vh;
        }
    </style>



</defs><title>Lista obecności</title><path class="cls-1" d="M89.47,25.83a1.5,1.5,0,0,0-1.5,1.5V94A3,3,0,0,1,85,97H15.39a3,3,0,0,1-2.94-3V20.26a1.49,1.49,0,0,0,0-.3V6a3,3,0,0,1,3-3H70.45V19.36a1.5,1.5,0,0,0,1.5,1.5H89.5s.06,0,.05,0h0a1.5,1.5,0,0,0,1.33-2.07h0a1.48,1.48,0,0,0-.29-.45h0l0,0L73,.45A1.5,1.5,0,0,0,72,0H15.37a6,6,0,0,0-6,6V28.2a1.49,1.49,0,0,0,0,.3V94a6,6,0,0,0,5.94,6H85A6,6,0,0,0,91,94V27.33A1.5,1.5,0,0,0,89.47,25.83Zm-16-20.66L85.92,17.86H73.45Z"/><path class="cls-1" d="M41.23,13.36a1.5,1.5,0,0,0-1.5-1.5H23.54a1.5,1.5,0,0,0-1.5,1.5V29.56a1.5,1.5,0,0,0,1.5,1.5H39.73a1.5,1.5,0,0,0,1.5-1.5Zm-3,14.7H25V14.86h13.2Z"/><path class="cls-1" d="M41.23,49.62a1.5,1.5,0,0,0-3,0V56H25V42.79h7.91a1.5,1.5,0,0,0,0-3h-9.4A1.5,1.5,0,0,0,22,41.3V57.49a1.5,1.5,0,0,0,1.5,1.5H39.73a1.5,1.5,0,0,0,1.5-1.5Z"/><path class="cls-1" d="M39.73,66.73H23.54a1.5,1.5,0,0,0-1.5,1.5V84.42a1.5,1.5,0,0,0,1.5,1.5H39.73a1.5,1.5,0,0,0,1.5-1.5V68.23A1.5,1.5,0,0,0,39.73,66.73Zm-1.5,16.19H25V69.73h13.2Z"/><path class="cls-1" d="M59.41,21.44a1.5,1.5,0,0,0-1.5-1.5H47.54a1.5,1.5,0,1,0,0,3H57.91A1.5,1.5,0,0,0,59.41,21.44Z"/><path class="cls-1" d="M73.41,47.88H49.49a1.5,1.5,0,1,0,0,3H73.41a1.5,1.5,0,0,0,0-3Z"/><path class="cls-1" d="M73.41,73.81H49.49a1.5,1.5,0,1,0,0,3H73.41a1.5,1.5,0,0,0,0-3Z"/><path class="cls-1" d="M28.3,46.23a1.5,1.5,0,1,0-2.18,2l3.68,3.93,0,0h0l0,0a1.49,1.49,0,0,0,.46.31h0a1.5,1.5,0,0,0,.54.11h0a1.49,1.49,0,0,0,.55-.11,1.54,1.54,0,0,0,.16-.1,1.45,1.45,0,0,0,.31-.2v0h0l8.48-8.48a1.5,1.5,0,0,0-2.12-2.12L30.92,49Z"/></svg>