<svg id="Warstwa_1" data-name="Warstwa 1" xmlns="http://www.w3.org/2000/svg" viewBox="0 0 100 100"><defs>



    <style>

        .cls-1{
        fill:rgb(96, 19, 108);
        stroke:rgb(96, 19, 108);
        <!--          box-shadow: 1px 1px 5px rgba(7, 74, 155,1)-->
        stroke-width:2px;
        stroke-radius: 2px;
        }

        #Warstwa_1{
        width: 1.5vw;
        height: 3vh;
        }
    </style>



</defs><title>21_21</title><path class="cls-1" d="M67.59,23.18a1.5,1.5,0,1,1,0-3A8.58,8.58,0,0,0,67.59,3a1.5,1.5,0,1,1,0-3,11.59,11.59,0,0,1,0,23.18Z"/><path class="cls-1" d="M76.29,93.59H72.06a1.5,1.5,0,1,1,0-3h4.23a3.12,3.12,0,0,0,3.11-3.12l.13-21.21A1.5,1.5,0,0,1,81,64.76H82.7a3.51,3.51,0,0,0,3.5-3.51V36.55a1.56,1.56,0,0,1,0-.18,4.08,4.08,0,0,0-1-2.91c-1.12-1.24-3.2-1.89-6-1.89a1.5,1.5,0,1,1,0-3c3.76,0,6.55,1,8.28,2.94a7.19,7.19,0,0,1,1.75,5.12V61.25a6.52,6.52,0,0,1-6.51,6.52h-.17l-.12,19.7A6.13,6.13,0,0,1,76.29,93.59Z"/><path class="cls-1" d="M27.53,93.59H23.29a6.13,6.13,0,0,1-6.12-6.13l-.12-19.7h-.17a6.52,6.52,0,0,1-6.51-6.52V36.61a7.19,7.19,0,0,1,1.75-5.12c1.73-1.95,4.51-2.94,8.28-2.94a1.5,1.5,0,1,1,0,3c-2.8,0-4.87.65-6,1.89a4.08,4.08,0,0,0-1,2.93s0,.11,0,.16v24.7a3.51,3.51,0,0,0,3.5,3.51h1.66a1.5,1.5,0,0,1,1.5,1.49l.13,21.2a3.12,3.12,0,0,0,3.11,3.13h4.23a1.5,1.5,0,1,1,0,3Z"/><path class="cls-1" d="M31.59,23.18A11.59,11.59,0,0,1,31.59,0a1.5,1.5,0,1,1,0,3,8.58,8.58,0,0,0,0,17.17,1.5,1.5,0,1,1,0,3Z"/><path class="cls-1" d="M44.39,100H40.16a6.12,6.12,0,0,1-6.1-6.11v-26h-.19a6.53,6.53,0,0,1-6.52-6.53V36.58c0-3,1.31-8,10.06-8a1.5,1.5,0,1,1,0,3c-6.32,0-7,2.85-7,5V61.32a3.52,3.52,0,0,0,3.51,3.52h1.69a1.5,1.5,0,0,1,1.5,1.5s0,0,0,0,0,.1,0,.15V93.89A3.1,3.1,0,0,0,40.16,97h4.22a3.11,3.11,0,0,0,3.1-3.11V76.24a1.5,1.5,0,0,1,3,0V93.89c0,.12,0,.24,0,.36s0,0,0,0c0,2,1.61,2.66,3,2.66h4.21a2.88,2.88,0,0,0,3.12-2.77V66.37a1.52,1.52,0,0,1,1.62-1.5H64.2a3.52,3.52,0,0,0,3.52-3.52V36.61a1.58,1.58,0,0,1,0-.18,4.08,4.08,0,0,0-1-2.91c-1.13-1.24-3.21-1.9-6-1.9a1.5,1.5,0,1,1,0-3c3.78,0,6.57,1,8.3,2.94a7.18,7.18,0,0,1,1.75,5.12V61.35a6.54,6.54,0,0,1-6.53,6.53h-.38v26.3A5.83,5.83,0,0,1,57.68,100H53.47A6.07,6.07,0,0,1,48.87,98,6.1,6.1,0,0,1,44.39,100ZM49,23.23A11.61,11.61,0,1,1,60.65,11.62,11.62,11.62,0,0,1,49,23.23ZM49,3a8.6,8.6,0,1,0,8.6,8.6A8.61,8.61,0,0,0,49,3Z"/></svg>