<svg id="Warstwa_1" data-name="Warstwa 1" xmlns="http://www.w3.org/2000/svg" viewBox="0 0 100 100"><defs>



    <style>

        .cls-1{
        fill:rgb(96, 19, 108);
        stroke:rgb(96, 19, 108);
        <!--          box-shadow: 1px 1px 5px rgba(7, 74, 155,1)-->
        stroke-width:2px;
        stroke-radius: 2px;
        }

        #Warstwa_1{
        width: 1.5vw;
        height: 3vh;
        }
    </style>



</defs><title>1_5</title><path class="cls-1" d="M94.94,17.88H69.76v-2C69.76,7.14,63.7,0,56.25,0H43.67c-6.44,0-12,5.42-13.26,12.89a1.5,1.5,0,0,0,3,.49c1-6,5.34-10.39,10.3-10.39H56.25C62,3,66.76,8.8,66.76,15.92v2H5.22A5,5,0,0,0,.33,23.06V59.41a1.5,1.5,0,0,0,1.5,1.5H5.32V94.83A5,5,0,0,0,10.21,100H89.95a5,5,0,0,0,4.89-5.17V60.91h3.46a1.51,1.51,0,0,0,1.54-1.5V23.06A5,5,0,0,0,94.94,17.88Zm-3.1,76.94A2,2,0,0,1,89.95,97H10.21a2,2,0,0,1-1.89-2.17V60.91h30a1.48,1.48,0,0,0,.44-.07v2.39a4.49,4.49,0,0,0,4.48,4.49h13.6a4.49,4.49,0,0,0,4.48-4.49V60.84a1.48,1.48,0,0,0,.44.07h30Zm-50-31.6V55.43a1.49,1.49,0,0,1,1.48-1.48h13.6a1.49,1.49,0,0,1,1.48,1.48v7.79a1.49,1.49,0,0,1-1.48,1.49H43.28A1.49,1.49,0,0,1,41.79,63.22Zm55-5.32h-35a1.48,1.48,0,0,0-.44.07V55.43a4.49,4.49,0,0,0-4.48-4.48H43.28a4.49,4.49,0,0,0-4.48,4.48V58a1.48,1.48,0,0,0-.44-.07h-35V23.06a2,2,0,0,1,1.89-2.17H94.94a2,2,0,0,1,1.89,2.17Z"/></svg>