<?xml version="1.0" encoding="iso-8859-1"?>
<!-- Generator: Adobe Illustrator 19.0.0, SVG Export Plug-In . SVG Version: 6.00 Build 0)  -->
<svg version="1.1" id="Layer_1" xmlns="http://www.w3.org/2000/svg" xmlns:xlink="http://www.w3.org/1999/xlink" x="0px" y="0px"
	 viewBox="0 0 511.863 511.863" style="enable-background:new 0 0 511.863 511.863;" xml:space="preserve">
<g>
	<g>
		<path d="M255.842,269.197c-19.9,0-36.084,16.188-36.084,36.084s16.188,36.084,36.084,36.084s36.084-16.188,36.084-36.084
			S275.738,269.197,255.842,269.197z"/>
	</g>
</g>
<g>
	<g>
		<path d="M255.842,353.549c-8.764,0-15.9,7.132-15.9,15.9s7.132,15.896,15.9,15.896c8.768,0,15.9-7.128,15.9-15.896
			S264.606,353.549,255.842,353.549z"/>
	</g>
</g>
<g>
	<g>
		<path d="M255.842,225.109c-8.768,0-15.9,7.128-15.9,15.896c0,8.768,7.132,15.896,15.9,15.896c8.764,0,15.9-7.128,15.9-15.896
			C271.742,232.237,264.61,225.109,255.842,225.109z"/>
	</g>
</g>
<g>
	<g>
		<path d="M320.058,289.333c-8.764,0-15.9,7.128-15.9,15.896s7.132,15.9,15.9,15.9s15.9-7.132,15.9-15.9
			S328.826,289.333,320.058,289.333z"/>
	</g>
</g>
<g>
	<g>
		<path d="M191.618,289.329c-8.768,0-15.9,7.128-15.9,15.896s7.132,15.9,15.9,15.9c8.768,0,15.9-7.132,15.9-15.9
			C207.518,296.461,200.386,289.329,191.618,289.329z"/>
	</g>
</g>
<g>
	<g>
		<path d="M312.494,339.397c-6.004-6.008-16.48-6.008-22.48,0c-6.196,6.196-6.196,16.28,0,22.48c3,3.004,6.992,4.656,11.236,4.656
			c4.248,0,8.244-1.652,11.244-4.656C318.69,355.677,318.69,345.593,312.494,339.397z"/>
	</g>
</g>
<g>
	<g>
		<path d="M221.67,248.577c-6-6.008-16.468-6.008-22.476,0c-6.204,6.2-6.204,16.28,0,22.48c2.996,3.004,6.988,4.656,11.24,4.656
			c4.244,0,8.236-1.652,11.236-4.656C227.874,264.857,227.874,254.777,221.67,248.577z"/>
	</g>
</g>
<g>
	<g>
		<path d="M312.49,248.577c-6-6.004-16.476-6.012-22.476,0c-6.204,6.2-6.204,16.28,0,22.48c3,3.004,6.992,4.656,11.232,4.656
			c4.248,0,8.244-1.652,11.244-4.656C318.694,264.857,318.694,254.777,312.49,248.577z"/>
	</g>
</g>
<g>
	<g>
		<path d="M221.67,339.397c-6-6.008-16.472-6.008-22.48,0c-6.196,6.196-6.196,16.28,0,22.48c3,3.004,6.992,4.656,11.244,4.656
			c4.244,0,8.236-1.652,11.236-4.656C227.866,355.677,227.866,345.593,221.67,339.397z"/>
	</g>
</g>
<g>
	<g>
		<path d="M511.762,200.197c-5.164-22.576-22.032-96.3-22.312-97.292c-2.084-7.576-5.248-14.864-14.196-16.872
			c-61.212-13.708-137.992-21.256-216.22-21.256c-78.204,0-154.984,7.548-216.188,21.248c-6.892,1.556-18.892,5.816-21.836,16.912
			c-0.264,1.02-16.084,74.748-20.92,97.316c-0.256,1.184,0.04,3.408,0.796,4.352c0.76,0.94,1.908,2.48,3.112,2.48h148.084
			c0.024,0,0.056,0,0.08,0c2.212,0,4-2.784,4-4.996c0-0.272-0.032-1.04-0.08-1.3l-0.02-65.624
			c62.296-7.32,135.868-7.528,199.868-0.156v66.084c0,1.064,0.428,3.076,1.18,3.828c0.752,0.752,1.776,2.164,2.84,2.164h147.916
			c1.22,0,2.368-1.552,3.124-2.504C511.746,203.629,512.034,201.385,511.762,200.197z"/>
	</g>
</g>
<g>
	<g>
		<path d="M463.79,394.097l-20.152-163.012H359.95c-7.476,0-14.52-3.908-19.808-9.196c-5.288-5.288-8.212-13.32-8.212-20.8v-44.42
			c-24-2.112-50.212-3.216-76.416-3.216c-25.9,0.004-51.584,1.08-75.584,3.152v42.4c0,0.696,0.156,1.396,0.156,2.092
			c0,14.664-11.912,28.812-26.268,29.988h-1.736h-1.952H68.042L47.886,393.597c-0.016,0.164-0.032,0.828-0.032,0.992
			c0,28.672,23.328,52.496,52,52.496h311.968c28.672,0,52-24.324,52-52.996C463.822,393.925,463.814,394.257,463.79,394.097z
			 M255.842,401.205c-53.008,0-95.976-42.968-95.976-95.976c0-53.008,42.968-95.98,95.976-95.98s95.976,42.972,95.976,95.98
			S308.846,401.205,255.842,401.205z"/>
	</g>
</g>
<g>
</g>
<g>
</g>
<g>
</g>
<g>
</g>
<g>
</g>
<g>
</g>
<g>
</g>
<g>
</g>
<g>
</g>
<g>
</g>
<g>
</g>
<g>
</g>
<g>
</g>
<g>
</g>
<g>
</g>
</svg>
