<svg id="Warstwa_1" data-name="Warstwa 1" xmlns="http://www.w3.org/2000/svg" viewBox="0 0 100 100"><defs>


    <style>

        .cls-1{
        fill:rgb(96, 19, 108);;
        stroke:rgb(96, 19, 108);;
        <!--          box-shadow: 1px 1px 5px rgba(7, 74, 155,1)-->
        stroke-width:2px;
        stroke-radius: 2px;
        }

        #Warstwa_1{
        width: 1.5vw;
        height: 3vh;
        }
    </style>


</defs><title>Wniosek o urlop</title><path class="cls-1" d="M95.48,9.85H81.26V4.74A4.44,4.44,0,0,0,76.83.31H68a4.44,4.44,0,0,0-4.44,4.44V18.45A4.44,4.44,0,0,0,68,22.89h8.81a4.44,4.44,0,0,0,4.44-4.44v-5.6H95.48a1.44,1.44,0,0,1,1.44,1.44v15h-94v-15a1.44,1.44,0,0,1,1.44-1.44H18.56v5.6A4.44,4.44,0,0,0,23,22.89h8.81a4.44,4.44,0,0,0,4.44-4.44V12.64H57.91a1.5,1.5,0,0,0,0-3H36.24V4.74A4.44,4.44,0,0,0,31.81.31H23a4.44,4.44,0,0,0-4.44,4.44V9.85H4.35A4.44,4.44,0,0,0-.09,14.29V95.56A4.44,4.44,0,0,0,4.35,100H95.48a4.44,4.44,0,0,0,4.44-4.44V14.29A4.44,4.44,0,0,0,95.48,9.85Zm-17.21,8.6a1.44,1.44,0,0,1-1.44,1.44H68a1.44,1.44,0,0,1-1.44-1.44V4.74A1.44,1.44,0,0,1,68,3.31h8.81a1.44,1.44,0,0,1,1.44,1.44ZM21.56,4.74A1.44,1.44,0,0,1,23,3.31h8.81a1.44,1.44,0,0,1,1.44,1.44V18.45a1.44,1.44,0,0,1-1.44,1.44H23a1.44,1.44,0,0,1-1.44-1.44ZM96.91,95.56A1.44,1.44,0,0,1,95.48,97H4.35a1.44,1.44,0,0,1-1.44-1.44V32.3h94Z"/><path class="cls-1" d="M86.67,66.21a1.5,1.5,0,0,0,0-3H73.6V50H86.67a1.5,1.5,0,0,0,0-3H73.6V39.95a1.5,1.5,0,0,0-3,0V47H51.41V39.95a1.5,1.5,0,0,0-3,0V47H29.3V39.95a1.5,1.5,0,0,0-3,0V47H13.16a1.5,1.5,0,0,0,0,3H26.3V63.21H13.16a1.5,1.5,0,0,0,0,3H26.3V79.38H13.16a1.5,1.5,0,0,0,0,3H26.3V88.9a1.5,1.5,0,0,0,3,0V82.38H48.41V88.9a1.5,1.5,0,0,0,3,0V82.38H70.6V88.9a1.5,1.5,0,0,0,3,0V82.38H86.67a1.5,1.5,0,0,0,0-3H73.6V66.21ZM48.41,79.38H29.3V66.21H48.41Zm0-16.18H29.3V50H48.41ZM70.6,79.38H51.41V66.21H70.6Zm0-16.18H51.41V50H70.6Z"/></svg>