<svg id="Warstwa_1" data-name="Warstwa 1" xmlns="http://www.w3.org/2000/svg" viewBox="0 0 100 100"><defs><style>.cls-1{fill:#009dde;}</style></defs><title>9_4</title><path class="cls-1" d="M98.5,48.54A1.5,1.5,0,0,0,97,50a47,47,0,1,1-.67-8,1.5,1.5,0,0,0,3-.5A50,50,0,1,0,100,50,1.5,1.5,0,0,0,98.5,48.54Z"/><path class="cls-1" d="M65.93,34.13a1.5,1.5,0,0,0-2.12,0L50,47.92,36.23,34.17a1.5,1.5,0,0,0-2.12,2.12L47.88,50,34.07,63.83A1.5,1.5,0,0,0,36.2,66L50,52.17,63.77,65.92a1.5,1.5,0,0,0,2.12-2.12L52.12,50l13.8-13.79A1.5,1.5,0,0,0,65.93,34.13Z"/></svg>