<svg id="Warstwa_1" data-name="Warstwa 1" xmlns="http://www.w3.org/2000/svg" viewBox="0 0 100 100"><defs>



    <style>
        .cls-1{
        fill:rgba(86, 86, 86,1);
        stroke:rgba(7, 74, 155,1);
        stroke-width:5px;
        }

        #Warstwa_1{
        width: 3vw;
        height: 3vh;
        }

    </style>



</defs><title></title><path class="cls-1" d="M50.05,59.64a1.51,1.51,0,0,1-1.51-1.51V1.51a1.51,1.51,0,1,1,3,0V58.13A1.51,1.51,0,0,1,50.05,59.64Z"/><path class="cls-1" d="M50.05,99.91a42.45,42.45,0,0,1-8.66-84,1.51,1.51,0,1,1,.61,3A39.43,39.43,0,1,0,59,19a1.51,1.51,0,0,1,.68-2.94,42.45,42.45,0,0,1-9.58,83.81Z"/></svg>